<?xml version="1.0" standalone="no"?>
<!DOCTYPE svg PUBLIC "-//W3C//DTD SVG 20010904//EN"
 "http://www.w3.org/TR/2001/REC-SVG-20010904/DTD/svg10.dtd">
<svg version="1.0" xmlns="http://www.w3.org/2000/svg"
 width="750.000000pt" height="750.000000pt" viewBox="0 0 750.000000 750.000000"
 preserveAspectRatio="xMidYMid meet">

<g transform="translate(0.000000,750.000000) scale(0.100000,-0.100000)"
fill="#000000" stroke="none">
<path d="M2835 5487 c-3 -7 48 -143 113 -302 l119 -290 529 -5 c583 -6 555 -2
514 -67 l-20 -33 -484 0 c-375 0 -486 -3 -493 -12 -5 -7 -29 -60 -52 -118 -24
-58 -49 -118 -56 -135 -18 -38 -90 -211 -145 -342 -30 -73 -48 -104 -63 -109
-12 -4 -200 -3 -418 1 -218 4 -399 3 -402 -2 -2 -4 49 -102 115 -218 67 -115
129 -226 140 -245 11 -19 33 -56 50 -82 l30 -48 113 0 c141 0 144 -5 87 -130
-11 -25 -27 -64 -36 -87 -8 -23 -25 -64 -37 -90 -44 -101 -49 -114 -49 -128 0
-7 -5 -15 -11 -17 -6 -2 -10 -13 -7 -23 3 -17 6 -15 23 13 17 28 24 32 62 32
41 0 55 -11 33 -25 -5 -3 -10 -15 -10 -26 0 -10 5 -19 10 -19 6 0 10 7 10 15
0 8 11 38 25 67 14 28 25 58 25 65 0 7 5 13 10 13 6 0 10 6 10 13 0 14 14 48
51 120 10 22 19 43 19 47 0 5 16 43 35 84 19 42 35 78 35 80 0 3 13 33 29 68
16 35 41 92 56 128 15 36 40 93 56 128 16 35 29 65 29 67 0 3 11 28 24 57 13
29 86 197 161 373 76 176 142 323 149 327 6 4 193 8 415 8 l404 0 -7 -32 c-3
-18 -14 -39 -23 -45 -13 -10 -105 -13 -379 -13 l-361 0 -48 -117 c-26 -65 -56
-136 -66 -158 -9 -22 -95 -229 -189 -460 -94 -231 -175 -430 -180 -442 -6 -13
-14 -33 -19 -45 -5 -13 -16 -39 -24 -58 -8 -19 -27 -69 -42 -110 -16 -41 -32
-79 -37 -84 -4 -6 -8 -18 -8 -28 0 -10 -4 -18 -10 -18 -5 0 -10 -7 -10 -15 0
-12 13 -15 63 -14 44 0 56 3 42 9 -11 5 -32 9 -47 9 -20 1 -26 5 -22 16 5 13
94 15 714 15 617 0 709 -2 720 -15 10 -12 10 -15 -3 -15 -9 0 -19 -4 -22 -10
-4 -6 7 -10 24 -10 23 0 31 5 31 18 0 10 -4 22 -9 28 -5 5 -14 26 -21 47 l-12
37 -629 0 -629 0 0 25 c0 14 4 33 9 43 13 24 54 116 81 182 12 30 30 73 40 95
10 22 41 96 70 165 29 69 60 143 70 165 9 22 39 92 65 155 27 63 52 119 57
125 4 5 8 15 8 21 0 7 15 45 33 86 19 40 46 104 62 141 16 37 31 70 35 72 14
9 563 6 572 -3 10 -10 -7 -63 -25 -74 -7 -4 -120 -8 -253 -8 l-241 0 -26 -62
c-52 -128 -197 -497 -197 -502 0 -4 -10 -28 -21 -54 -27 -60 -43 -99 -57 -137
-5 -16 -13 -37 -16 -45 -3 -8 -29 -75 -59 -147 l-54 -133 582 0 c551 0 583 -1
598 -18 10 -10 17 -23 17 -29 0 -10 21 -59 41 -95 5 -10 9 -25 9 -33 0 -12 12
-15 54 -15 54 0 55 -1 80 -42 20 -34 26 -38 26 -21 0 12 -4 24 -9 28 -5 3 -13
20 -17 37 -3 18 -10 39 -14 48 -15 28 -38 85 -53 130 -8 25 -23 64 -32 87
l-17 43 -525 2 c-455 3 -527 5 -535 18 -7 11 1 38 26 93 20 42 36 79 36 82 0
3 18 49 41 103 22 53 44 106 49 117 4 11 15 36 24 57 9 20 16 39 16 42 0 3 8
25 19 49 10 23 38 88 61 145 23 56 45 104 49 106 16 10 321 10 331 0 17 -17
-17 -93 -44 -99 -11 -3 -68 -6 -126 -8 l-105 -2 -17 -36 c-9 -20 -20 -48 -24
-63 l-6 -26 194 0 195 0 12 28 c20 43 183 440 312 762 65 162 115 298 111 302
-4 4 -271 9 -592 10 l-584 3 -57 140 c-31 77 -54 146 -52 153 4 9 191 12 889
12 850 0 884 -1 884 -18 0 -10 -45 -126 -101 -258 -55 -131 -161 -385 -236
-564 -74 -179 -146 -349 -159 -378 -13 -29 -24 -55 -24 -58 0 -3 -9 -25 -20
-48 -11 -24 -40 -95 -66 -157 -57 -139 -82 -196 -99 -229 l-14 -25 -364 -3
-364 -2 -22 -51 c-11 -29 -21 -58 -21 -65 0 -20 852 -21 867 -1 6 6 69 149
141 317 71 168 207 483 300 700 93 217 209 487 257 600 48 113 95 223 105 245
34 75 50 117 50 131 0 20 -2218 21 -2225 1z m-96 -1565 c7 -14 5 -27 -9 -50
l-20 -32 -216 0 -216 0 -28 31 c-52 55 -42 58 198 62 120 1 231 3 249 5 23 1
35 -3 42 -16z m-95 -228 c4 -9 -2 -31 -12 -48 -18 -30 -20 -31 -103 -34 -121
-4 -144 2 -164 43 -9 20 -13 40 -10 45 4 6 64 10 145 10 118 0 139 -2 144 -16z"/>
<path d="M3176 5261 c-3 -4 6 -38 20 -75 l26 -66 624 0 c526 0 625 -2 630 -14
3 -8 -106 -283 -241 -612 -262 -635 -262 -635 -279 -646 -6 -4 -117 -8 -247
-8 l-235 0 -22 -53 c-12 -29 -22 -58 -22 -65 0 -9 72 -12 314 -12 l314 0 25
63 c14 34 36 87 50 117 14 30 48 111 77 180 28 69 58 139 65 155 8 17 21 48
30 70 32 77 215 512 304 725 50 118 91 223 91 232 0 17 -43 18 -759 18 -418 0
-762 -4 -765 -9z"/>
<path d="M4840 4725 c-17 -37 -28 -71 -25 -76 4 -5 35 -9 70 -9 55 0 66 -3 79
-22 20 -29 20 -54 0 -62 -9 -3 -56 -6 -105 -6 l-89 0 -25 -54 c-41 -91 -49
-86 150 -86 166 0 175 -1 195 -22 22 -24 27 -58 8 -59 -7 0 -98 0 -203 0 -104
0 -198 -2 -207 -5 -17 -5 -68 -103 -68 -130 0 -12 63 -14 375 -14 247 0 375 3
375 10 0 6 -9 25 -21 43 -11 17 -87 149 -167 292 l-147 260 -83 3 -82 3 -30
-66z"/>
<path d="M2350 2959 c0 -5 5 -7 10 -4 6 3 10 8 10 11 0 2 -4 4 -10 4 -5 0 -10
-5 -10 -11z"/>
<path d="M2471 2954 c0 -11 3 -14 6 -6 3 7 2 16 -1 19 -3 4 -6 -2 -5 -13z"/>
<path d="M4395 2950 c3 -5 8 -10 11 -10 2 0 4 5 4 10 0 6 -5 10 -11 10 -5 0
-7 -4 -4 -10z"/>
<path d="M2474 2910 c1 -13 108 -15 901 -15 l900 0 -897 2 c-704 3 -897 6
-901 16 -2 7 -3 6 -3 -3z"/>
<path d="M4468 2795 c-3 -3 -403 -6 -889 -6 -486 -1 -909 -5 -939 -9 -30 -4
371 -8 893 -9 836 -1 947 1 947 14 0 16 -3 18 -12 10z"/>
<path d="M2270 2780 c0 -5 24 -10 53 -10 37 0 48 3 37 10 -20 13 -90 13 -90 0z"/>
<path d="M2393 2773 c9 -2 25 -2 35 0 9 3 1 5 -18 5 -19 0 -27 -2 -17 -5z"/>
<path d="M2478 2773 c17 -2 47 -2 65 0 17 2 3 4 -33 4 -36 0 -50 -2 -32 -4z"/>
<path d="M453 2194 c-10 -4 -10 -11 1 -32 14 -27 9 -84 -24 -267 -5 -27 -14
-81 -21 -118 l-11 -69 38 -39 38 -39 247 0 247 0 5 28 c19 91 24 128 19 133
-4 3 -40 4 -79 1 -72 -4 -73 -5 -73 -32 0 -52 -26 -62 -150 -58 -74 2 -113 7
-118 15 -8 13 -1 79 17 168 6 28 16 81 22 120 17 109 12 105 143 105 125 0
139 -6 134 -57 l-3 -28 76 -3 c73 -3 76 -2 87 23 20 44 14 69 -28 110 l-41 40
-257 2 c-141 1 -263 0 -269 -3z"/>
<path d="M1236 2191 c-3 -4 8 -19 23 -33 15 -14 40 -57 56 -95 16 -37 39 -93
53 -123 30 -67 30 -108 -4 -277 l-6 -33 74 0 75 0 11 38 c10 32 17 73 28 161
2 13 14 40 28 60 27 37 40 54 159 205 38 47 65 91 62 96 -7 11 -111 12 -139 1
-11 -4 -44 -41 -75 -82 -31 -40 -63 -75 -72 -77 -11 -2 -23 18 -44 70 -15 40
-32 77 -36 83 -10 11 -187 16 -193 6z"/>
<path d="M1966 2192 c-3 -6 -1 -22 5 -36 13 -28 10 -56 -55 -433 -3 -18 -9
-46 -12 -63 l-6 -30 290 0 290 0 7 28 c3 15 10 50 15 77 4 28 13 77 19 110 18
101 18 100 -6 103 -40 6 -45 24 -27 97 l17 67 -40 39 -39 40 -226 6 c-156 4
-227 3 -232 -5z m360 -97 c3 -8 0 -43 -8 -77 l-13 -63 -90 0 -90 0 1 50 c1 28
7 62 13 78 10 27 12 27 96 27 66 0 87 -3 91 -15z m34 -220 c7 -9 10 -28 7 -47
-16 -88 -20 -104 -35 -115 -16 -14 -215 -19 -246 -7 -24 9 -10 142 17 167 27
23 237 26 257 2z"/>
<path d="M2745 2191 c-3 -6 -1 -20 5 -31 11 -21 7 -62 -26 -270 -15 -99 -25
-152 -40 -227 l-6 -33 231 0 c222 0 231 1 231 19 0 11 5 23 10 26 30 19 -2 25
-129 25 -77 0 -147 3 -155 6 -14 5 -15 17 -10 73 10 109 13 111 157 111 114 0
123 1 135 21 8 12 10 25 5 30 -5 5 -62 10 -128 11 l-120 3 1 50 c1 28 7 62 13
78 l11 27 148 0 149 0 11 36 c8 26 8 36 -1 39 -33 10 -486 15 -492 6z"/>
<path d="M3403 2194 c-10 -4 -10 -11 -2 -26 7 -13 9 -42 5 -72 -10 -81 -35
-256 -46 -316 -6 -30 -13 -76 -16 -102 l-7 -48 77 0 76 0 0 31 c0 18 4 48 10
68 5 20 12 57 15 83 7 58 26 78 70 78 27 0 39 -7 57 -32 13 -18 29 -44 35 -58
6 -14 22 -50 37 -80 14 -30 26 -60 26 -67 0 -17 26 -23 100 -23 l68 0 -56 111
c-65 130 -64 142 14 147 55 3 50 -6 83 135 17 75 14 90 -29 132 l-40 39 -232
3 c-128 1 -239 0 -245 -3z m385 -126 c2 -20 -2 -55 -8 -78 l-11 -41 -107 3
-107 3 3 55 c2 30 10 65 18 78 14 21 20 23 112 20 l97 -3 3 -37z"/>
<path d="M4571 2192 c-10 -8 -11 -14 -1 -32 11 -21 3 -96 -31 -295 -5 -27 -12
-70 -15 -95 -3 -25 -13 -51 -22 -57 -18 -15 -229 -18 -250 -4 -9 6 -11 19 -7
45 l7 36 -80 0 -80 0 -5 -52 c-3 -29 -9 -65 -13 -80 l-6 -28 254 0 254 0 46
48 c29 30 48 60 52 82 4 19 10 55 15 80 7 40 55 270 68 328 5 21 2 22 -48 22
-30 0 -70 3 -89 5 -19 3 -41 2 -49 -3z"/>
<path d="M4915 2191 c-3 -5 0 -21 6 -34 9 -19 6 -55 -10 -163 -12 -77 -24
-148 -28 -159 -3 -11 -9 -47 -14 -80 -4 -33 -11 -75 -15 -92 l-6 -33 75 0 75
0 11 31 c6 18 11 44 11 60 0 45 22 133 39 152 13 15 30 17 129 15 141 -4 144
-6 119 -105 -9 -37 -19 -87 -23 -110 l-6 -43 76 0 c70 0 76 2 81 23 7 32 26
135 35 187 4 25 17 92 29 150 11 58 21 110 21 115 0 14 -51 70 -77 83 -27 15
-519 17 -528 3z m427 -150 c-1 -35 -7 -70 -13 -77 -9 -10 -43 -14 -131 -14
-99 0 -120 3 -125 16 -8 20 16 127 31 137 6 4 63 6 126 5 l115 -3 -3 -64z"/>
<path d="M5666 2193 c-3 -4 7 -20 23 -37 16 -17 41 -60 56 -96 14 -36 33 -80
41 -98 42 -91 45 -145 13 -248 -5 -17 -9 -42 -9 -57 0 -27 0 -27 74 -27 l74 0
11 44 c6 25 11 55 11 68 0 13 7 49 15 81 12 48 34 81 135 207 67 83 118 155
115 160 -8 13 -121 13 -146 -1 -11 -5 -45 -44 -75 -85 -34 -46 -62 -74 -71
-72 -9 2 -27 34 -43 78 l-27 75 -44 7 c-59 9 -144 10 -153 1z"/>
<path d="M6403 2194 c-9 -4 -9 -11 -1 -29 11 -24 0 -112 -44 -350 -11 -60 -23
-127 -25 -148 l-5 -38 78 3 79 3 7 40 c4 22 12 71 17 108 14 101 22 107 151
107 149 0 151 -2 122 -125 -6 -22 -14 -62 -20 -88 l-10 -48 82 3 81 3 9 50 c4
28 23 128 42 222 19 95 34 181 34 192 0 10 -20 37 -45 60 l-45 41 -247 -1
c-137 0 -253 -3 -260 -5z m420 -146 c-3 -97 -5 -98 -144 -98 -138 0 -139 1
-120 83 18 78 18 78 150 75 l116 -3 -2 -57z"/>
</g>
</svg>
